<?xml version="1.0" standalone="no"?>
<!DOCTYPE svg PUBLIC "-//W3C//DTD SVG 20010904//EN"
 "http://www.w3.org/TR/2001/REC-SVG-20010904/DTD/svg10.dtd">
<svg version="1.0" xmlns="http://www.w3.org/2000/svg"
 width="30.000000pt" height="30.000000pt" viewBox="0 0 300.000000 300.000000"
 preserveAspectRatio="xMidYMid meet">
<metadata>
Created by potrace 1.10, written by Peter Selinger 2001-2011
</metadata>
<g transform="translate(0.000000,300.000000) scale(0.100000,-0.100000)"
fill="#e9dfd0" stroke="#e9dfd0">
<path d="M803 2782 c-251 -90 -272 -432 -35 -549 81 -40 183 -40 264 0 107 53
163 144 163 267 0 85 -21 142 -74 203 -72 81 -213 117 -318 79z m214 -53 c80
-38 143 -139 143 -229 0 -133 -127 -260 -260 -260 -125 0 -244 108 -257 233
-21 201 189 345 374 256z"/>
<path d="M2003 2482 c-251 -90 -272 -432 -35 -549 81 -40 183 -40 264 0 107
53 163 144 163 267 0 85 -21 142 -74 203 -72 81 -213 117 -318 79z m214 -53
c78 -38 143 -142 143 -229 0 -133 -127 -260 -260 -260 -86 0 -180 57 -228 138
-23 40 -27 58 -27 123 0 67 4 81 30 124 76 122 215 165 342 104z"/>
<path d="M713 1986 c-63 -20 -110 -53 -148 -104 -61 -79 -65 -107 -65 -474 0
-368 1 -376 65 -399 l35 -13 0 -314 0 -314 35 -35 c32 -32 39 -35 78 -30 49 7
83 40 91 90 3 17 15 175 26 350 11 174 23 324 26 332 12 30 76 30 88 0 3 -8
15 -158 26 -332 11 -175 23 -333 26 -352 8 -49 53 -91 99 -91 29 0 45 8 71 34
l34 34 0 314 0 314 35 13 c64 23 65 31 65 399 0 372 -4 397 -70 480 -26 34
-58 59 -97 78 -56 28 -65 29 -218 31 -112 2 -172 -1 -202 -11z m400 -55 c26
-13 63 -42 82 -64 61 -70 65 -102 65 -460 l0 -319 -50 -48 -50 -48 0 -302 0
-301 -25 -25 c-25 -25 -52 -26 -82 -2 -18 14 -20 39 -43 388 -22 340 -24 346
-83 380 -24 13 -30 13 -54 0 -60 -34 -61 -39 -83 -380 -11 -173 -25 -332 -31
-353 -16 -61 -80 -71 -109 -17 -6 11 -10 133 -10 318 l0 300 -31 26 c-17 14
-34 26 -38 26 -26 0 -31 64 -31 364 0 350 5 383 64 453 66 77 123 93 316 89
128 -2 151 -5 193 -25z"/>
<path d="M1913 1686 c-63 -20 -110 -53 -148 -104 -60 -77 -65 -112 -65 -424 0
-313 3 -327 65 -349 l35 -13 0 -214 0 -214 34 -34 c59 -59 144 -37 166 44 5
20 19 137 30 260 12 123 24 230 27 237 13 35 79 28 88 -8 3 -12 16 -129 29
-259 24 -252 32 -279 82 -298 46 -18 75 -11 110 24 l34 34 0 214 0 214 35 13
c62 22 65 36 65 349 0 317 -5 349 -70 430 -26 34 -58 59 -97 78 -56 28 -65 29
-218 31 -112 2 -172 -1 -202 -11z m400 -55 c26 -13 63 -42 82 -64 59 -69 65
-107 65 -410 l0 -270 -50 -46 -50 -46 0 -203 0 -203 -25 -25 c-19 -18 -31 -23
-48 -19 -47 15 -50 25 -74 277 -26 259 -30 276 -86 308 -24 13 -30 13 -54 0
-56 -32 -61 -49 -84 -290 -11 -124 -25 -238 -31 -253 -20 -52 -82 -56 -108 -7
-6 11 -10 100 -10 215 l0 197 -32 30 c-18 16 -41 37 -50 46 -16 14 -18 41 -18
292 0 322 4 346 79 420 69 69 114 80 296 77 133 -3 155 -6 198 -26z"/>
</g>
</svg>
